<svg xmlns="http://www.w3.org/2000/svg" xmlns:svg="http://www.w3.org/2000/svg" id="SVGRoot" width="512" height="512" version="1.1" viewBox="0 0 512 512"><defs id="defs1512"><filter style="color-interpolation-filters:sRGB" id="filter1062"><feFlood id="feFlood1052" flood-color="#000" flood-opacity=".498" result="flood"/><feComposite id="feComposite1054" in="flood" in2="SourceGraphic" operator="in" result="composite1"/><feGaussianBlur id="feGaussianBlur1056" in="composite1" result="blur" stdDeviation="1"/><feOffset id="feOffset1058" dx="0" dy="0" result="offset"/><feComposite id="feComposite1060" in="SourceGraphic" in2="offset" operator="over" result="composite2"/></filter><filter style="color-interpolation-filters:sRGB" id="filter1086"><feFlood id="feFlood1076" flood-color="#000" flood-opacity=".498" result="flood"/><feComposite id="feComposite1078" in="flood" in2="SourceGraphic" operator="in" result="composite1"/><feGaussianBlur id="feGaussianBlur1080" in="composite1" result="blur" stdDeviation="1"/><feOffset id="feOffset1082" dx="0" dy="0" result="offset"/><feComposite id="feComposite1084" in="SourceGraphic" in2="offset" operator="over" result="composite2"/></filter><filter style="color-interpolation-filters:sRGB" id="filter1098"><feFlood id="feFlood1088" flood-color="#000" flood-opacity=".498" result="flood"/><feComposite id="feComposite1090" in="flood" in2="SourceGraphic" operator="in" result="composite1"/><feGaussianBlur id="feGaussianBlur1092" in="composite1" result="blur" stdDeviation="1"/><feOffset id="feOffset1094" dx="0" dy="0" result="offset"/><feComposite id="feComposite1096" in="SourceGraphic" in2="offset" operator="over" result="composite2"/></filter><filter style="color-interpolation-filters:sRGB" id="filter2688"><feFlood id="feFlood2678" flood-color="#000" flood-opacity=".498" result="flood"/><feComposite id="feComposite2680" in="flood" in2="SourceGraphic" operator="in" result="composite1"/><feGaussianBlur id="feGaussianBlur2682" in="composite1" result="blur" stdDeviation="0"/><feOffset id="feOffset2684" dx="0" dy="0" result="offset"/><feComposite id="feComposite2686" in="SourceGraphic" in2="offset" operator="over" result="composite2"/></filter><filter style="color-interpolation-filters:sRGB" id="filter970"><feFlood id="feFlood960" flood-color="#000" flood-opacity=".498" result="flood"/><feComposite id="feComposite962" in="flood" in2="SourceGraphic" operator="in" result="composite1"/><feGaussianBlur id="feGaussianBlur964" in="composite1" result="blur" stdDeviation=".3"/><feOffset id="feOffset966" dx="0" dy=".6" result="offset"/><feComposite id="feComposite968" in="SourceGraphic" in2="offset" operator="over" result="composite2"/></filter><filter style="color-interpolation-filters:sRGB" id="filter994"><feFlood id="feFlood984" flood-color="#000" flood-opacity=".498" result="flood"/><feComposite id="feComposite986" in="flood" in2="SourceGraphic" operator="in" result="composite1"/><feGaussianBlur id="feGaussianBlur988" in="composite1" result="blur" stdDeviation=".3"/><feOffset id="feOffset990" dx="0" dy=".6" result="offset"/><feComposite id="feComposite992" in="SourceGraphic" in2="offset" operator="over" result="composite2"/></filter><filter style="color-interpolation-filters:sRGB" id="filter1006"><feFlood id="feFlood996" flood-color="#000" flood-opacity=".498" result="flood"/><feComposite id="feComposite998" in="flood" in2="SourceGraphic" operator="in" result="composite1"/><feGaussianBlur id="feGaussianBlur1000" in="composite1" result="blur" stdDeviation=".3"/><feOffset id="feOffset1002" dx="0" dy=".6" result="offset"/><feComposite id="feComposite1004" in="SourceGraphic" in2="offset" operator="over" result="composite2"/></filter></defs><metadata id="metadata1515"/><g id="layer2" style="display:inline"><path style="fill:none;fill-opacity:1;fill-rule:nonzero;stroke:#ff0058;stroke-width:18.54000092;stroke-miterlimit:4;stroke-dasharray:none;stroke-dashoffset:0;stroke-opacity:1;paint-order:fill markers stroke" id="path839" d="M 251.31172,390.3613 A 129.37376,129.37376 0 0 1 160.79278,348.669 129.37376,129.37376 0 0 1 126.769,254.99773"/></g><g id="layer3" style="display:inline"><path style="display:inline;fill:none;fill-opacity:1;fill-rule:nonzero;stroke:#00f;stroke-width:18.54000092;stroke-miterlimit:4;stroke-dasharray:none;stroke-dashoffset:0;stroke-opacity:1;paint-order:fill markers stroke" id="path839-7" cx="256" cy="256" r="125.606"/><path style="display:inline;fill:none;fill-opacity:1;fill-rule:nonzero;stroke:#0bf;stroke-width:18.54000092;stroke-miterlimit:4;stroke-dasharray:none;stroke-dashoffset:0;stroke-opacity:1;paint-order:fill markers stroke" id="path839-5" d="M 378.19362,218.57342 A 129.37376,129.37376 0 0 1 317.97483,374.63628"/></g><g id="layer4" style="display:inline"><path style="display:inline;fill:none;fill-opacity:1;fill-rule:nonzero;stroke:#00c78c;stroke-width:18.54000092;stroke-miterlimit:4;stroke-dasharray:none;stroke-dashoffset:0;stroke-opacity:1;paint-order:fill markers stroke" id="path839-5-3" d="m 157.98172,176.63321 a 129.37376,129.37376 0 0 1 169.19162,-23.5968"/></g><g id="layer1" style="display:inline"><circle style="fill:#008a7f;fill-opacity:1;fill-rule:nonzero;stroke:none;stroke-width:.59710145;stroke-opacity:1;paint-order:fill markers stroke" id="path1388-7" cx="255.999" cy="392.914" r="41.2"/><path style="fill:none;fill-opacity:1;fill-rule:nonzero;stroke:#0bf;stroke-width:18.54000092;stroke-linecap:round;stroke-miterlimit:4;stroke-dasharray:none;stroke-opacity:1;paint-order:fill markers stroke" id="path1394-5" d="m 223.98777,337.46541 a 64.024582,64.024582 0 0 1 70.98799,4.6528 64.024582,64.024582 0 0 1 22.8673,67.36489 64.024582,64.024582 0 0 1 -53.48612,46.90607 64.024582,64.024582 0 0 1 -63.80379,-31.46456"/><circle style="fill:#008a7f;fill-opacity:1;fill-rule:nonzero;stroke:none;stroke-width:.50380051;stroke-opacity:1;paint-order:fill markers stroke" id="path1388-7-3" cx="368.325" cy="195.154" r="41.2"/><path style="fill:none;fill-opacity:1;fill-rule:nonzero;stroke:#00c78c;stroke-width:18.54000092;stroke-linecap:round;stroke-miterlimit:4;stroke-dasharray:none;stroke-dashoffset:0;stroke-opacity:1;paint-order:fill markers stroke" id="path1394-5-5" d="m 336.31251,250.5994 a 64.024582,64.024582 0 0 1 -31.46455,-63.8038 64.024582,64.024582 0 0 1 46.90606,-53.48612 64.024582,64.024582 0 0 1 67.36489,22.86731 64.024582,64.024582 0 0 1 4.6528,70.98798"/><circle style="fill:#008a7f;fill-opacity:1;fill-rule:nonzero;stroke:none;stroke-width:.5373913;stroke-opacity:1;paint-order:fill markers stroke" id="path1388-7-6" cx="143.675" cy="195.154" r="0"/><path style="fill:none;fill-opacity:1;fill-rule:nonzero;stroke:#ff0058;stroke-width:18.54000092;stroke-linecap:round;stroke-miterlimit:4;stroke-dasharray:none;stroke-opacity:1;paint-order:fill markers stroke" id="path1394-5-2" d="m 207.69949,195.15248 a 64.024582,64.024582 0 0 1 -39.52343,59.151 A 64.024582,64.024582 0 0 1 98.402695,240.4247 64.024582,64.024582 0 0 1 84.523911,170.65133 64.024582,64.024582 0 0 1 143.67491,131.1279"/><circle style="fill:none;fill-opacity:1;fill-rule:nonzero;stroke:#000;stroke-width:5.65941954;stroke-miterlimit:4;stroke-dasharray:none;stroke-opacity:1;paint-order:fill markers stroke" id="path1474" cx="256" cy="261.073" r="0"/><g id="g2972" transform="matrix(2.7060489,-0.73642008,0.75469663,2.8606024,326.72686,168.88544)"><path id="path2958" d="M 21,19 V 5 C 21,3.9 20.1,3 19,3 H 5 C 3.9,3 3,3.9 3,5 v 14 c 0,1.1 0.9,2 2,2 h 14 c 1.1,0 2,-0.9 2,-2 z M 8.5,13.5 11,16.51 14.5,12 19,18 H 5 Z" style="fill:#fff;fill-opacity:1;filter:url(#filter994)"/><path id="path2960" d="M 0,0 H 24 V 24 H 0 Z" style="fill:none"/></g><g id="g2988" transform="matrix(3.0211017,-0.80950178,0.80950178,3.0211017,209.85382,370.19052)"><path id="path2974" d="M 0,0 H 24 V 24 H 0 Z" style="fill:none"/><path id="path2976" d="M 12,21.35 10.55,20.03 C 5.4,15.36 2,12.28 2,8.5 2,5.42 4.42,3 7.5,3 9.24,3 10.91,3.81 12,5.09 13.09,3.81 14.76,3 16.5,3 19.58,3 22,5.42 22,8.5 c 0,3.78 -3.4,6.86 -8.55,11.54 z" style="fill:#fff;fill-opacity:1;filter:url(#filter1006)"/></g><circle style="display:inline;fill:#008a7f;fill-opacity:1;fill-rule:nonzero;stroke:none;stroke-width:.50380051;stroke-opacity:1;paint-order:fill markers stroke" id="path1388-7-3-5" cx="143.681" cy="195.154" r="41.2"/><g id="g3004" transform="matrix(4.6102723,-1.2353188,1.2353188,4.6102723,70.952603,149.27434)"><path id="path2990" d="M 0,0 H 24 V 24 H 0 Z" style="fill:none"/><path id="path2992" d="m 12.217891,6.3219571 v 7.3119169 c -0.408913,-0.235645 -0.880202,-0.38119 -1.386146,-0.38119 -1.5316907,0 -2.772291,1.2406 -2.772291,2.772291 0,1.531691 1.2406003,2.772291 2.772291,2.772291 1.531691,0 2.772291,-1.2406 2.772291,-2.772291 V 9.0942487 h 2.772291 V 6.3219571 Z" style="fill:#fff;fill-opacity:1;stroke-width:.6930728;filter:url(#filter970)"/></g></g></svg>