<svg xmlns="http://www.w3.org/2000/svg" xmlns:svg="http://www.w3.org/2000/svg" id="SVGRoot" width="512" height="512" version="1.1" viewBox="0 0 512 512"><metadata id="metadata19"/><path style="display:inline;fill:#000;fill-opacity:1;fill-rule:nonzero;stroke:none;stroke-width:6.4000001;stroke-linecap:square;stroke-miterlimit:4;stroke-dasharray:none;stroke-dashoffset:0;stroke-opacity:1;paint-order:normal" id="path24" d="M 256.00098,3.6464844 A 252.35323,252.35323 0 0 0 3.64746,256 252.35323,252.35323 0 0 0 256.00098,508.35352 252.35323,252.35323 0 0 0 508.35254,256 252.35323,252.35323 0 0 0 256.00098,3.6464844 Z M 362.00684,115.79688 c 24.33131,-0.1345 48.77652,11.43351 62.38281,32.6914 14.96283,22.9669 16.36957,53.4923 2.17383,77.4082 a 9.2709275,9.2709275 0 1 1 -15.94336,-9.46289 c 10.30802,-17.36617 9.31447,-40.84372 -1.77734,-57.84961 l -0.0234,-0.0371 -0.0234,-0.0352 C 392.83786,133.5387 352.29765,126.783 329.46004,145.79098 l -0.11328,0.0937 -0.11718,0.0898 c -10.01813,7.81227 -17.29099,19.03656 -19.47852,31.20117 l -0.0195,0.10938 -0.0215,0.10937 c -4.57194,22.32238 5.63245,48.54403 25.69922,58.98047 a 9.2709275,9.2709275 0 1 1 -8.55468,16.44922 c -28.60153,-14.87523 -41.45203,-48.91471 -35.32032,-79.05469 1.80044,-9.89794 5.875,-19.05157 11.55469,-27.02539 -9.04508,-4.41542 -18.62988,-7.565 -28.48047,-9.46484 -35.96647,-6.93674 -75.19691,2.91915 -102.84375,27.15625 v 0.002 c 3.00644,3.94986 5.25058,8.54079 6.4336,13.69531 0.99569,3.58314 1.50251,7.30359 1.50195,11.02149 1.18552,28.36718 -31.59804,50.05702 -57.24414,37.94726 -26.576315,-9.95777 -33.835856,-48.59141 -12.66016,-67.5039 7.24812,-7.70982 17.0207,-11.33163 26.94141,-11.51368 0.66138,-0.0121 1.32434,-0.008 1.98633,0.01 6.35375,0.17509 12.69941,1.74749 18.41992,4.53516 25.47607,-23.57823 59.53666,-35.95704 93.70312,-36.0918 9.13799,-0.036 18.28412,0.80337 27.27344,2.53711 13.20193,2.54621 26.08785,7.05157 38.11133,13.5918 0.48469,-0.3999 0.96459,-0.8059 1.45898,-1.19336 12.08278,-10.02087 26.93219,-15.07571 41.96289,-15.62696 0.78428,-0.0288 1.56864,-0.0445 2.35352,-0.0488 z m -223.44727,0.0605 a 9.2709275,9.2709275 0 1 1 -0.1289,18.54102 c -17.70286,-0.12327 -35.5306,9.36034 -45.316413,24.11328 l -0.111328,0.16992 -0.119141,0.16406 c -20.17998,27.70712 -4.32719,73.2445 28.718752,82.39844 l 0.33594,0.0937 0.32813,0.11719 c 32.71293,11.77177 72.30467,-17.21971 70.98828,-51.95117 a 9.2709275,9.2709275 0 1 1 18.52734,-0.70313 c 1.64707,43.4558 -39.56017,78.3555 -81.03125,73.53516 2.51794,48.23367 37.32201,91.80082 82.58008,107.02539 2.02525,-4.45831 4.92801,-8.55882 8.7832,-12.00195 7.24811,-7.70982 17.0207,-11.33338 26.94141,-11.51563 0.66138,-0.0122 1.32434,-0.008 1.98633,0.01 17.65291,0.48647 35.26791,11.70992 39.47461,30.03906 0.99569,3.58314 1.50251,7.30359 1.50195,11.02148 1.18552,28.36719 -31.59805,50.05702 -57.24414,37.94727 -15.49065,-5.80413 -24.40144,-21.35023 -24.96094,-37.05469 C 154.21471,370.53499 112.39029,317.121 112.06348,257.63686 69.090589,242.29495 50.646123,185.58635 77.799804,148.08594 91.21481,128.0012 114.40305,115.68921 138.55957,115.85742 Z m 222.82227,32.22656 c 0.66138,-0.0121 1.32434,-0.008 1.98633,0.01 17.65291,0.48647 35.26791,11.70992 39.47461,30.03906 0.9957,3.58314 1.50251,7.30359 1.50195,11.02149 0.59052,14.13008 -7.24982,26.59995 -18.43555,34.06445 13.8924,57.12154 -12.07681,120.17996 -62.96484,150.35937 9.76613,45.55278 -30.61137,91.26646 -77.3418,86.43165 -24.10164,-1.57517 -46.35832,-15.5014 -58.29101,-36.50586 a 9.2709275,9.2709275 0 1 1 16.12109,-9.15821 c 8.74467,15.39276 25.87169,26.08725 43.54102,27.18555 l 0.20312,0.0137 0.20117,0.0215 c 34.08507,3.62281 65.59547,-32.87473 57,-66.07032 l -0.0879,-0.33789 -0.0605,-0.34375 c -6.16183,-34.21612 -51.0662,-54.00771 -80.48633,-35.50195 a 9.2709275,9.2709275 0 1 1 -9.8711,-15.69336 c 10.29887,-6.47816 21.69617,-9.71751 33.13477,-10.18359 1.0688,-0.0435 2.13842,-0.0631 3.20703,-0.0586 27.73871,0.11709 55.11059,16.30366 67.05859,41.88672 40.2344,-26.27152 61.27321,-78.35035 51.16602,-125.20117 -7.09946,1.08199 -14.47284,0.28065 -21.33789,-2.96094 -26.57632,-9.95777 -33.83588,-48.59141 -12.66016,-67.5039 7.24813,-7.70982 17.0207,-11.33163 26.94141,-11.51368 z"/><circle style="fill:none;fill-opacity:1;fill-rule:nonzero;stroke:#040000;stroke-width:5.65941954;stroke-miterlimit:4;stroke-dasharray:none;stroke-opacity:1;paint-order:fill markers stroke" id="path1474" cx="256" cy="255.072" r="0"/><circle style="fill:#008a7f;fill-opacity:1;fill-rule:nonzero;stroke:#040000;stroke-width:.5373913;stroke-opacity:1;paint-order:fill markers stroke" id="path1388-7-6" cx="143.675" cy="189.154" r="0"/><path style="display:inline;fill:none;fill-opacity:1;fill-rule:nonzero;stroke:#040000;stroke-width:18.54000092;stroke-miterlimit:4;stroke-dasharray:none;stroke-dashoffset:0;stroke-opacity:1;paint-order:fill markers stroke" id="path839-7"/></svg>